<?xml version="1.0" encoding="UTF-8"?>
<svg version="1.1" xmlns="http://www.w3.org/2000/svg" width="595" height="594">
<path d="M0 0 C6.74018215 -0.10233933 13.48016024 -0.17185505 20.22094727 -0.21972656 C22.50878385 -0.23970626 24.79657026 -0.26689951 27.08422852 -0.30175781 C46.79189324 -0.59429682 63.95656601 0.90998853 79.15625 15.01953125 C89.64100233 26.28175462 95.48504189 39.85691095 95.43359375 55.21484375 C95.4388356 56.15123184 95.44407745 57.08761993 95.44947815 58.05238342 C95.45585509 60.01790381 95.45461805 61.98346258 95.44604492 63.94897461 C95.4375301 66.92697204 95.46636544 69.90305035 95.49804688 72.88085938 C95.55329716 87.72034031 93.80199753 98.45130345 83.48046875 109.6484375 C74.55936987 118.20053715 63.55016707 119.73307392 51.6875 119.63671875 C50.34332645 119.64478927 48.99916572 119.65532467 47.6550293 119.66816711 C44.1480649 119.69644111 40.6416947 119.69734222 37.13464355 119.69030762 C31.52516599 119.68292968 25.91587421 119.71481371 20.30654907 119.75275612 C18.37259811 119.76144863 16.4385987 119.75555381 14.50463867 119.74919128 C0.74196325 119.79192571 -11.8295989 120.98836721 -22.3125 130.6875 C-30.40504343 139.32063843 -32.49633664 148.5914713 -32.28125 160.09375 C-31.66836745 168.60600762 -28.71177991 174.81223843 -23 181 C-23 181.66 -23 182.32 -23 183 C-22.41992188 183.2784375 -21.83984375 183.556875 -21.2421875 183.84375 C-19.0992211 184.94883372 -17.13714071 186.17473463 -15.125 187.5 C-5.37493165 193.62758454 4.92618006 193.14026085 16.078125 193.17578125 C17.45425162 193.18622683 18.83037112 193.19765292 20.20648193 193.21000671 C26.01701709 193.26206561 31.82742025 193.31038011 37.63818359 193.32592773 C41.20621446 193.33609448 44.77365685 193.36562869 48.34145355 193.40724754 C50.33687258 193.42529509 52.33244341 193.42292913 54.32794189 193.41999817 C67.07119099 193.58976232 76.30319687 196.90507958 85.6484375 205.51953125 C95.18791253 215.470608 95.80468726 227.58770048 95.65185547 240.59838867 C95.62514196 243.2981533 95.65165703 245.99372395 95.68359375 248.69335938 C95.71500917 264.08947531 93.02479792 276.78758728 83 289 C81.83597656 290.48113281 81.83597656 290.48113281 80.6484375 291.9921875 C78.11943832 295.00192523 75.33754768 297.27774917 72.125 299.5625 C71.13757813 300.28566406 70.15015625 301.00882812 69.1328125 301.75390625 C55.81289204 309.62422947 42.37441076 309.70069559 27.36743164 309.56762695 C25.11894258 309.56621399 22.87045123 309.56701329 20.6219635 309.56983948 C14.56085576 309.57126534 8.50024972 309.54201013 2.43925786 309.50696969 C-3.91079413 309.47556737 -10.26085951 309.47276454 -16.61097717 309.46684265 C-27.25531637 309.45310213 -37.89945901 309.42193931 -48.54370117 309.37719727 C-59.49974669 309.33119291 -70.45574243 309.29585452 -81.41186523 309.2746582 C-82.08895937 309.27334459 -82.76605351 309.27203097 -83.46366566 309.27067754 C-86.86097408 309.26415162 -90.25828284 309.25783326 -93.65559185 309.25161803 C-121.77052131 309.19991519 -149.88524924 309.11158906 -178 309 C-177.3710896 307.07231196 -176.73865788 305.1457725 -176.10473633 303.21972656 C-175.75292801 302.14676331 -175.40111969 301.07380005 -175.03865051 299.96832275 C-169.57073365 284.34175554 -158.32894194 273.8891397 -143.75 266.8125 C-134.86472243 262.93416868 -126.01468313 260.50557095 -116.49609375 258.8203125 C-115.31740723 258.61156494 -114.1387207 258.40281738 -112.92431641 258.18774414 C-110.57122055 257.78039802 -108.21543944 257.38818255 -105.85693359 257.01342773 C-91.18161176 254.52145215 -77.48403933 247.74303296 -68 236 C-62.76574442 228.19568728 -58.63727023 220.35186557 -57 211 C-56.77183594 209.69675781 -56.77183594 209.69675781 -56.5390625 208.3671875 C-54.43884991 192.35890042 -59.51636722 177.74681825 -69 165 C-69.7425 163.96875 -70.485 162.9375 -71.25 161.875 C-79.54407732 153.20391917 -91.12533785 146.97164202 -103 145 C-103.80695313 144.8659375 -104.61390625 144.731875 -105.4453125 144.59375 C-120.90118656 142.61107228 -135.27275492 146.89352289 -147.6875 156.125 C-159.71462553 165.8767234 -166.25367514 177.74766011 -169 193 C-169.14817639 194.6500405 -169.26686941 196.30293554 -169.359375 197.95703125 C-170.45170554 214.83824025 -172.60331663 229.12217996 -183 243 C-183.69029297 243.96292969 -183.69029297 243.96292969 -184.39453125 244.9453125 C-193.62847236 256.81372095 -208.39903988 263.85689965 -223 266 C-228.96347582 266.26219781 -234.39265718 265.55392872 -240.25 264.5 C-261.40451741 260.9935914 -281.7055147 264.27856578 -299.75 276.1875 C-308.42234915 282.52087814 -316.15963386 289.93736289 -322 299 C-332.44809024 293.77595488 -338.80788296 283.64225318 -343.1786499 273.17819214 C-347.03970776 261.43371895 -346.50533825 249.67739562 -346.390625 237.4453125 C-346.38315107 235.08878055 -346.37746359 232.73224233 -346.37347412 230.3757019 C-346.35830857 224.21732989 -346.31910599 218.05934403 -346.2746582 211.90112305 C-346.2335084 205.59949973 -346.21542124 199.29781312 -346.1953125 192.99609375 C-346.15260215 180.6638942 -346.08446233 168.3319794 -346 156 C-345.67 156 -345.34 156 -345 156 C-344.8040625 157.0415625 -344.608125 158.083125 -344.40625 159.15625 C-341.4564007 173.69857955 -336.06577036 186.86980335 -326 198 C-325.47019531 198.60972656 -324.94039062 199.21945312 -324.39453125 199.84765625 C-312.00159596 213.24144617 -293.29828785 219.99304054 -275.4140625 220.99609375 C-255.2302735 221.01918733 -237.0234826 213.46229377 -222.46875 199.59765625 C-218.75498174 195.68997288 -215.75937255 191.62437561 -213 187 C-212.46632812 186.10925781 -211.93265625 185.21851563 -211.3828125 184.30078125 C-204.74873187 172.20431085 -202.83666999 159.55852542 -202.35107422 145.95361328 C-201.4716028 123.44190781 -193.41411829 103.28982915 -177.05078125 87.60546875 C-168.59686463 80.14352268 -158.64370447 74.65014649 -148 71 C-147.29101562 70.75507813 -146.58203125 70.51015625 -145.8515625 70.2578125 C-135.81458777 67.45053604 -124.36215974 68.32291765 -114.3125 70.5 C-88.63828608 76.05476629 -62.01844531 69.88471934 -40 56 C-36.10261362 53.22474029 -32.52968317 50.2265202 -29 47 C-27.73929687 45.87851563 -27.73929687 45.87851563 -26.453125 44.734375 C-13.33884374 32.43464538 -5.55912528 16.89267317 0 0 Z " fill="#0055FF" transform="translate(420,147)"/>
<path d="M0 0 C14.71625596 14.38665459 22.9563136 33.18787401 23.59594727 53.64257812 C23.8037065 75.02606622 17.74136775 94.15879794 3.125 110.1328125 C2.53460938 110.81472656 1.94421875 111.49664062 1.3359375 112.19921875 C-10.34608912 124.90031578 -28.66655985 133.79046615 -45.875 135.1328125 C-54.32301719 135.47190925 -62.50388868 135.35715871 -70.875 134.1328125 C-97.57144415 132.70754033 -123.63476518 140.05451805 -143.875 158.1328125 C-144.58527344 158.87144531 -145.29554688 159.61007813 -146.02734375 160.37109375 C-147.875 162.1328125 -147.875 162.1328125 -149.875 162.1328125 C-150.13152344 162.71417969 -150.38804687 163.29554688 -150.65234375 163.89453125 C-151.98646811 166.33687392 -153.49572773 167.95646697 -155.4375 169.9453125 C-169.60085383 185.67666013 -176.91906875 205.79883318 -177.25 226.7578125 C-177.84731406 246.05429332 -182.74099525 261.16950078 -197.0546875 274.72265625 C-210.20584494 285.96124924 -225.96313111 289.18501698 -242.875 288.1328125 C-257.62368725 286.32853987 -269.92334669 279.02390188 -279.875 268.1328125 C-289.47594149 255.61761876 -294.19340267 240.91179052 -292.875 225.1328125 C-290.8518887 210.41000253 -285.41551996 199.54655645 -274.875 189.1328125 C-274.24851562 188.48441406 -273.62203125 187.83601562 -272.9765625 187.16796875 C-260.12299514 174.77539431 -244.20262238 173.81009352 -227.37890625 173.7421875 C-197.53291852 173.19788377 -173.23938379 155.98156192 -152.98266602 135.5390625 C-140.1137529 122.17145472 -130.94658008 104.00421475 -130.5 85.1953125 C-130.6653979 81.09712004 -131.36873807 77.27971298 -132.36328125 73.30859375 C-137.25002328 52.5306143 -131.89713653 30.96537485 -120.875 13.1328125 C-118.38600005 9.62469446 -115.72379052 6.3534331 -112.875 3.1328125 C-112.35679687 2.52050781 -111.83859375 1.90820312 -111.3046875 1.27734375 C-99.13503776 -12.08480935 -79.5302784 -20.46156156 -61.75 -21.80078125 C-38.43347336 -22.33934233 -17.25131505 -16.03298773 0 0 Z M-250.66015625 216.07421875 C-255.95356581 222.86930478 -256.62237123 228.60844784 -255.875 237.1328125 C-254.12831073 243.84143434 -249.69768102 247.67746381 -243.875 251.1328125 C-237.79956434 253.15795772 -230.42264469 253.23327739 -224.5 250.6328125 C-219.35661663 247.6369796 -215.73961555 242.72665915 -213.875 237.1328125 C-213.21393047 229.81769888 -213.10660293 223.06358892 -217.875 217.1328125 C-224.21702321 211.3012137 -229.23061574 209.74956373 -237.80078125 209.86328125 C-243.26770435 210.34259217 -246.9406983 212.02920649 -250.66015625 216.07421875 Z " fill="#FF8F00" transform="translate(379.875,63.8671875)"/>
<path d="M0 0 C9.05795927 9.07344296 14.47060943 19.76563265 15.3203125 32.65625 C15.1385511 46.26815899 10.64899331 58.04897938 1.578125 68.19921875 C-6.02829231 75.48536586 -16.52524464 80.33871401 -27.08203125 80.46484375 C-56.79783005 81.05438831 -77.73494313 91.24021164 -98.3125 112.54296875 C-108.10776393 123.73983142 -114.11711101 137.36282209 -114.71484375 152.2890625 C-114.37788981 155.18290219 -113.82810494 157.97122207 -113.2421875 160.82421875 C-110.25471925 180.45299159 -114.43192727 198.30585002 -125.96875 214.44140625 C-137.99475203 228.56750089 -153.8951925 235.61987658 -172.1484375 237.09765625 C-189.19476715 238.068355 -205.05415862 232.12963066 -218.1171875 221.296875 C-231.29557005 208.99705129 -237.59238841 193.11551084 -238.66015625 175.44238281 C-239.09372938 158.37044074 -232.58999554 142.90899809 -221.01953125 130.63671875 C-220.25898438 129.86199219 -219.4984375 129.08726562 -218.71484375 128.2890625 C-218.09867188 127.64839844 -217.4825 127.00773438 -216.84765625 126.34765625 C-205.1695438 115.14569001 -189.46134254 110.89719472 -173.65673828 111.06030273 C-169.48403568 111.16089199 -165.36534241 111.49284853 -161.21484375 111.9140625 C-140.79265107 113.62851818 -120.63946219 106.41666031 -105.05078125 93.3359375 C-104.27992188 92.66046875 -103.5090625 91.985 -102.71484375 91.2890625 C-101.68230469 90.39960938 -101.68230469 90.39960938 -100.62890625 89.4921875 C-88.06372048 77.87063228 -80.28445167 61.03295929 -77.71484375 44.2890625 C-77.60857991 41.52620269 -77.65025504 38.80219568 -77.7265625 36.0390625 C-77.6668378 22.02366668 -72.68710767 10.56216657 -63.05859375 0.5703125 C-45.49977449 -15.66331285 -17.83688535 -15.48763703 0 0 Z " fill="#FF9000" transform="translate(339.71484375,314.7109375)"/>
<path d="M0 0 C1.06474548 -0.00043808 2.12949097 -0.00087616 3.22650146 -0.00132751 C6.70563843 0.00074333 10.18427849 0.02399368 13.66333008 0.04760742 C16.09141273 0.05320943 18.51949879 0.05747667 20.94758606 0.06047058 C27.30813112 0.07187164 33.6684675 0.10129789 40.02893066 0.13458252 C46.53138405 0.16538586 53.03387148 0.17899779 59.53637695 0.1940918 C72.27279361 0.22617224 85.00906632 0.2767263 97.74536133 0.34057617 C97.60221297 2.41693386 97.45432419 4.49296509 97.30444336 6.56884766 C97.18167526 8.303032 97.18167526 8.303032 97.056427 10.07225037 C95.27457667 28.79391561 83.71373626 46.0770104 69.74145508 58.11401367 C51.72994817 71.49935779 30.30009275 75.63011591 8.60668945 79.07373047 C-10.72245008 82.23015334 -28.72827259 90.33899088 -41.00463867 106.09057617 C-49.13341414 117.53107498 -53.65696083 129.58059947 -56.25463867 143.34057617 C-56.58463867 143.34057617 -56.91463867 143.34057617 -57.25463867 143.34057617 C-57.34770056 131.06558626 -57.41858644 118.79068156 -57.46188736 106.51540947 C-57.4826794 100.8142632 -57.5108426 95.11335996 -57.55639648 89.41235352 C-57.60015477 83.90098844 -57.62383867 78.38985575 -57.63414764 72.87833023 C-57.64148552 70.78538485 -57.65581325 68.69245084 -57.6775589 66.59960556 C-57.87092176 47.20212314 -55.48463152 30.94751428 -41.69213867 16.09057617 C-29.89305015 4.95496223 -16.14952553 -0.17779842 0 0 Z " fill="#008CFF" transform="translate(131.254638671875,146.659423828125)"/>
<path d="M0 0 C0.77499847 -0.00846954 1.54999695 -0.01693909 2.34848022 -0.02566528 C4.8922398 -0.04892615 7.43539047 -0.05005994 9.97924805 -0.04882812 C11.76132952 -0.05593727 13.54340873 -0.06363737 15.32548523 -0.07189941 C19.05510829 -0.0853199 22.78451977 -0.0869244 26.51416016 -0.08105469 C31.2720379 -0.07516673 36.02889237 -0.10572373 40.78657246 -0.14617157 C44.46627687 -0.17214064 48.14573806 -0.17491757 51.82552147 -0.17127991 C53.57845819 -0.17296315 55.33140713 -0.18252833 57.08425331 -0.20042419 C67.73708646 -0.29720918 76.81751276 -0.3018936 85.05366516 7.40979004 C91.56644951 14.1843009 93.49478406 21.03782815 93.40893555 30.35131836 C93.10992517 38.87409761 90.20462207 44.58921791 84.0534668 50.35742188 C78.22352703 55.32140824 72.37365265 56.87058698 64.85693359 56.83984375 C64.08193512 56.84831329 63.30693665 56.85678284 62.50845337 56.86550903 C59.96469379 56.8887699 57.42154312 56.88990369 54.87768555 56.88867188 C53.09560407 56.89578102 51.31352487 56.90348112 49.53144836 56.91174316 C45.80182531 56.92516365 42.07241383 56.92676815 38.34277344 56.92089844 C33.58489569 56.91501048 28.82804123 56.94556748 24.07036114 56.98601532 C20.39065672 57.01198439 16.71119553 57.01476132 13.03141212 57.01112366 C11.2784754 57.0128069 9.52552646 57.02237208 7.77268028 57.04026794 C-2.88015286 57.13705293 -11.96057917 57.14173735 -20.19673157 49.43005371 C-26.70951591 42.65554285 -28.63785046 35.8020156 -28.55200195 26.48852539 C-28.25299158 17.96574614 -25.34768847 12.25062584 -19.1965332 6.48242188 C-13.36659344 1.51843551 -7.51671905 -0.03074323 0 0 Z M-5.5715332 21.91992188 C-7.69306704 25.4558116 -7.86254621 28.3989391 -7.0715332 32.41992188 C-5.73819987 35.08658854 -5.73819987 35.08658854 -3.0715332 36.41992188 C0.94944957 37.21093488 3.89257707 37.04145571 7.4284668 34.91992188 C9.55000063 31.38403215 9.7194798 28.44090465 8.9284668 24.41992188 C7.59513346 21.75325521 7.59513346 21.75325521 4.9284668 20.41992188 C0.90748403 19.62890887 -2.03564348 19.79838804 -5.5715332 21.91992188 Z " fill="#FF9000" transform="translate(428.071533203125,275.580078125)"/>
</svg>
